PathFileType	4	(X/Y/Z)	E:/New_biomech_experiments/MICROGRAVITY MOCAP/Session 2024-06-22/Neeraj_StickPose_22_06_24.trc	
DataRate	CameraRate	NumFrames	NumMarkers	Units	OrigDataRate	OrigDataStartFrame	OrigNumFrames	
120.00	120.00	14	19	m	120.00	197	1570	
Frame#	Time	 RSHO			 RBAK			 LBHD			 RUPA			 PRSHO			 RWRA			 RELB			 RFRM			 CLAV			 STRN			 ARSHO			 RFHD			 LFHD			 DIA			 C7			 RBHD			 MRELB			 RWRB			 T10			
		X1	Y1	Z1	X2	Y2	Z2	X3	Y3	Z3	X4	Y4	Z4	X5	Y5	Z5	X6	Y6	Z6	X7	Y7	Z7	X8	Y8	Z8	X9	Y9	Z9	X10	Y10	Z10	X11	Y11	Z11	X12	Y12	Z12	X13	Y13	Z13	X14	Y14	Z14	X15	Y15	Z15	X16	Y16	Z16	X17	Y17	Z17	X18	Y18	Z18	X19	Y19	Z19	

197	1.633	-0.02479	1.51748	0.18823	-0.12989	1.36279	0.04695	-0.05896	1.71583	-0.08089	-0.00603	1.30332	0.23315	-0.11119	1.46550	0.13179	0.03641	0.88393	0.21024	-0.00940	1.16128	0.23998	-0.00058	1.02602	0.25169	0.09151	1.48618	-0.02702	0.13447	1.32467	-0.02108	0.07261	1.46108	0.13951	0.04486	1.81504	0.05912	0.05612	1.82932	-0.04317	0.07522	1.16650	0.13633	-0.10201	1.52933	-0.01985	-0.07814	1.71543	0.02244	-0.07084	1.14403	0.13657	-0.05958	0.86482	0.23553	-0.12040	1.33368	-0.02331 
198	1.642	-0.02477	1.51747	0.18820	-0.12988	1.36284	0.04696	-0.05893	1.71584	-0.08090	-0.00603	1.30330	0.23313	-0.11136	1.46571	0.13177	0.03637	0.88392	0.21021	-0.00944	1.16125	0.23996	-0.00060	1.02602	0.25167	0.09153	1.48617	-0.02703	0.13449	1.32466	-0.02110	0.07262	1.46107	0.13949	0.04487	1.81504	0.05911	0.05612	1.82932	-0.04319	0.07522	1.16650	0.13631	-0.10199	1.52933	-0.01987	-0.07811	1.71542	0.02241	-0.07085	1.14403	0.13654	-0.05966	0.86485	0.23547	-0.12037	1.33369	-0.02333 
199	1.650	-0.02475	1.51747	0.18818	-0.12986	1.36287	0.04695	-0.05890	1.71586	-0.08092	-0.00602	1.30329	0.23311	-0.11144	1.46582	0.13175	0.03634	0.88391	0.21018	-0.00948	1.16123	0.23993	-0.00062	1.02602	0.25165	0.09156	1.48617	-0.02705	0.13450	1.32465	-0.02112	0.07264	1.46105	0.13947	0.04489	1.81504	0.05910	0.05613	1.82932	-0.04321	0.07522	1.16650	0.13629	-0.10196	1.52934	-0.01990	-0.07809	1.71541	0.02239	-0.07086	1.14403	0.13651	-0.05972	0.86487	0.23540	-0.12034	1.33369	-0.02335 
200	1.658	-0.02473	1.51746	0.18815	-0.12985	1.36288	0.04693	-0.05887	1.71586	-0.08093	-0.00603	1.30327	0.23309	-0.11135	1.46574	0.13172	0.03632	0.88390	0.21014	-0.00951	1.16122	0.23990	-0.00064	1.02601	0.25163	0.09158	1.48616	-0.02706	0.13452	1.32464	-0.02113	0.07265	1.46104	0.13945	0.04491	1.81503	0.05909	0.05615	1.82932	-0.04322	0.07522	1.16650	0.13627	-0.10193	1.52934	-0.01992	-0.07806	1.71540	0.02236	-0.07087	1.14403	0.13648	-0.05977	0.86488	0.23534	-0.12031	1.33369	-0.02338 
201	1.667	-0.02470	1.51745	0.18813	-0.12984	1.36290	0.04690	-0.05883	1.71586	-0.08094	-0.00603	1.30326	0.23307	-0.11118	1.46556	0.13168	0.03629	0.88389	0.21010	-0.00955	1.16121	0.23986	-0.00066	1.02600	0.25160	0.09160	1.48615	-0.02708	0.13454	1.32462	-0.02115	0.07266	1.46103	0.13942	0.04493	1.81503	0.05909	0.05617	1.82932	-0.04323	0.07522	1.16650	0.13626	-0.10191	1.52934	-0.01994	-0.07803	1.71540	0.02233	-0.07089	1.14403	0.13645	-0.05981	0.86489	0.23528	-0.12028	1.33369	-0.02340 
202	1.675	-0.02468	1.51743	0.18811	-0.12983	1.36290	0.04686	-0.05879	1.71587	-0.08094	-0.00603	1.30325	0.23305	-0.11105	1.46543	0.13165	0.03627	0.88388	0.21006	-0.00959	1.16119	0.23983	-0.00067	1.02600	0.25158	0.09162	1.48615	-0.02710	0.13455	1.32461	-0.02117	0.07267	1.46101	0.13940	0.04495	1.81503	0.05908	0.05620	1.82932	-0.04324	0.07521	1.16650	0.13624	-0.10189	1.52934	-0.01997	-0.07800	1.71539	0.02230	-0.07090	1.14402	0.13642	-0.05984	0.86488	0.23523	-0.12026	1.33370	-0.02343 
203	1.683	-0.02466	1.51742	0.18808	-0.12982	1.36288	0.04681	-0.05874	1.71588	-0.08094	-0.00604	1.30324	0.23303	-0.11103	1.46543	0.13162	0.03625	0.88388	0.21001	-0.00963	1.16116	0.23980	-0.00069	1.02599	0.25155	0.09165	1.48614	-0.02711	0.13457	1.32460	-0.02118	0.07268	1.46100	0.13938	0.04498	1.81503	0.05906	0.05624	1.82932	-0.04324	0.07521	1.16650	0.13622	-0.10186	1.52934	-0.01999	-0.07797	1.71538	0.02227	-0.07092	1.14402	0.13640	-0.05987	0.86487	0.23517	-0.12025	1.33370	-0.02345 
204	1.692	-0.02465	1.51741	0.18806	-0.12981	1.36289	0.04677	-0.05870	1.71591	-0.08094	-0.00605	1.30323	0.23301	-0.11105	1.46547	0.13159	0.03624	0.88387	0.20997	-0.00966	1.16114	0.23978	-0.00070	1.02598	0.25152	0.09167	1.48613	-0.02713	0.13458	1.32459	-0.02119	0.07268	1.46099	0.13936	0.04501	1.81502	0.05905	0.05628	1.82932	-0.04325	0.07520	1.16650	0.13621	-0.10184	1.52934	-0.02002	-0.07794	1.71538	0.02224	-0.07094	1.14402	0.13637	-0.05988	0.86485	0.23512	-0.12023	1.33371	-0.02348 
205	1.700	-0.02465	1.51741	0.18803	-0.12981	1.36292	0.04676	-0.05865	1.71596	-0.08095	-0.00606	1.30322	0.23298	-0.11104	1.46548	0.13156	0.03622	0.88387	0.20991	-0.00968	1.16113	0.23975	-0.00071	1.02598	0.25148	0.09169	1.48613	-0.02714	0.13460	1.32458	-0.02120	0.07268	1.46098	0.13934	0.04504	1.81501	0.05902	0.05632	1.82931	-0.04326	0.07519	1.16650	0.13619	-0.10182	1.52933	-0.02005	-0.07790	1.71538	0.02221	-0.07096	1.14402	0.13634	-0.05989	0.86484	0.23506	-0.12022	1.33372	-0.02351 
206	1.708	-0.02465	1.51741	0.18799	-0.12981	1.36298	0.04677	-0.05861	1.71601	-0.08098	-0.00607	1.30322	0.23296	-0.11106	1.46552	0.13153	0.03622	0.88387	0.20986	-0.00970	1.16114	0.23971	-0.00072	1.02597	0.25145	0.09171	1.48612	-0.02716	0.13462	1.32457	-0.02122	0.07269	1.46098	0.13932	0.04507	1.81500	0.05900	0.05635	1.82931	-0.04329	0.07518	1.16651	0.13617	-0.10179	1.52933	-0.02008	-0.07786	1.71537	0.02218	-0.07098	1.14402	0.13631	-0.05989	0.86482	0.23500	-0.12021	1.33372	-0.02354 
207	1.717	-0.02465	1.51742	0.18796	-0.12981	1.36302	0.04676	-0.05856	1.71607	-0.08102	-0.00608	1.30321	0.23293	-0.11113	1.46563	0.13150	0.03621	0.88387	0.20980	-0.00972	1.16114	0.23967	-0.00073	1.02597	0.25141	0.09173	1.48611	-0.02717	0.13463	1.32456	-0.02123	0.07269	1.46097	0.13930	0.04511	1.81500	0.05897	0.05639	1.82930	-0.04333	0.07516	1.16651	0.13616	-0.10177	1.52933	-0.02011	-0.07783	1.71537	0.02214	-0.07100	1.14403	0.13627	-0.05989	0.86480	0.23495	-0.12020	1.33372	-0.02358 
208	1.725	-0.02465	1.51743	0.18794	-0.12981	1.36305	0.04675	-0.05851	1.71612	-0.08107	-0.00609	1.30321	0.23290	-0.11112	1.46562	0.13147	0.03621	0.88388	0.20974	-0.00973	1.16115	0.23963	-0.00073	1.02597	0.25137	0.09175	1.48611	-0.02719	0.13465	1.32456	-0.02124	0.07269	1.46097	0.13928	0.04516	1.81499	0.05894	0.05644	1.82930	-0.04336	0.07515	1.16651	0.13614	-0.10175	1.52933	-0.02014	-0.07779	1.71538	0.02210	-0.07102	1.14403	0.13623	-0.05987	0.86477	0.23489	-0.12018	1.33373	-0.02360 
209	1.733	-0.02465	1.51743	0.18791	-0.12980	1.36306	0.04671	-0.05846	1.71618	-0.08111	-0.00610	1.30321	0.23288	-0.11101	1.46549	0.13144	0.03622	0.88388	0.20969	-0.00974	1.16114	0.23960	-0.00074	1.02596	0.25132	0.09176	1.48611	-0.02720	0.13466	1.32455	-0.02124	0.07270	1.46097	0.13926	0.04520	1.81499	0.05891	0.05649	1.82929	-0.04338	0.07514	1.16651	0.13612	-0.10174	1.52933	-0.02017	-0.07775	1.71538	0.02206	-0.07103	1.14405	0.13619	-0.05985	0.86474	0.23484	-0.12017	1.33373	-0.02363 
210	1.742	-0.02465	1.51743	0.18789	-0.12980	1.36305	0.04667	-0.05840	1.71622	-0.08115	-0.00611	1.30320	0.23285	-0.11094	1.46542	0.13140	0.03622	0.88388	0.20963	-0.00975	1.16113	0.23957	-0.00073	1.02596	0.25128	0.09178	1.48610	-0.02721	0.13467	1.32454	-0.02125	0.07270	1.46096	0.13924	0.04525	1.81498	0.05888	0.05655	1.82929	-0.04341	0.07513	1.16651	0.13611	-0.10172	1.52933	-0.02020	-0.07772	1.71539	0.02202	-0.07105	1.14406	0.13614	-0.05981	0.86471	0.23478	-0.12016	1.33373	-0.02366 
